<svg xmlns="http://www.w3.org/2000/svg" width="512" height="512" viewBox="0 0 225 225"><!DOCTYPE svg PUBLIC "-//W3C//DTD SVG 1.1//EN" "http://www.w3.org/Graphics/SVG/1.1/DTD/svg11.dtd">
<svg xmlns="http://www.w3.org/2000/svg" version="1.1" width="225px" height="225px" style="shape-rendering:geometricPrecision; text-rendering:geometricPrecision; image-rendering:optimizeQuality; fill-rule:evenodd; clip-rule:evenodd" xmlns:xlink="http://www.w3.org/1999/xlink">
<g><path style="opacity:1" fill="#fdfdfd" d="M -0.5,-0.5 C 74.5,-0.5 149.5,-0.5 224.5,-0.5C 224.5,74.5 224.5,149.5 224.5,224.5C 149.5,224.5 74.5,224.5 -0.5,224.5C -0.5,149.5 -0.5,74.5 -0.5,-0.5 Z"/></g>
<g><path style="opacity:1" fill="#d02a1e" d="M 127.5,69.5 C 112.324,69.8294 97.324,69.4961 82.5,68.5C 87.4227,49.3969 92.756,30.3969 98.5,11.5C 114.167,10.1667 129.833,10.1667 145.5,11.5C 139.293,30.7856 133.293,50.1189 127.5,69.5 Z"/></g>
<g><path style="opacity:1" fill="#be9f62" d="M 84.5,27.5 C 85.2389,27.369 85.9056,27.5357 86.5,28C 84.4603,33.3229 82.9603,38.8229 82,44.5C 70.1029,48.9468 59.1029,54.9468 49,62.5C 45.4836,66.075 44.817,70.075 47,74.5C 48.4578,76.96 50.2911,79.1266 52.5,81C 64.5551,89.0293 77.2218,96.0293 90.5,102C 94.7591,105.358 97.9257,109.525 100,114.5C 101.645,146.773 101.978,179.106 101,211.5C 78.4171,198.126 55.9171,184.626 33.5,171C 28.7659,167.699 25.9326,163.199 25,157.5C 24.0397,127.46 24.373,97.4599 26,67.5C 28.0751,63.421 30.9084,59.921 34.5,57C 51.0759,46.9048 67.7425,37.0714 84.5,27.5 Z"/></g>
<g><path style="opacity:1" fill="#d0281d" d="M 145.5,30.5 C 161.436,38.8028 177.103,47.6362 192.5,57C 196.491,59.9889 199.324,63.8222 201,68.5C 202.634,97.785 202.968,127.118 202,156.5C 200.928,163.908 197.094,169.408 190.5,173C 168.917,185.707 147.417,198.541 126,211.5C 125.022,179.106 125.355,146.773 127,114.5C 128.979,110.044 131.813,106.21 135.5,103C 149.123,96.1888 162.456,88.8554 175.5,81C 184.364,74.3175 184.698,67.3175 176.5,60C 167.687,54.8438 158.52,50.3438 149,46.5C 147.512,41.2407 146.345,35.9074 145.5,30.5 Z"/></g>
<g><path style="opacity:1" fill="#d4756e" d="M 82.5,68.5 C 97.324,69.4961 112.324,69.8294 127.5,69.5C 112.328,70.8264 96.9948,70.8264 81.5,69.5C 81.6236,68.8933 81.9569,68.56 82.5,68.5 Z"/></g></svg>